# xmcd
#
# Track frame offsets: 
#        150
#        10969
#        23263
#        37838
#        52125
#        65115
#        78370
#        90503
#        101130
#        111295
#        120507
#        131036
#        143151
#        156150
#        168367
#
# Disc length: 2412 seconds
#
# Revision: 3
# Processed by: cddbd v1.5.2PL0 Copyright (c) Steve Scherf et al.
# Submitted via: ExactAudioCopy v1.0b3
#
DISCID=c0096a0f
DTITLE=Various Artist - The Fabulous Fifties - Great Memories
DYEAR=2000
DGENRE=Retro
TTITLE0=Andy Williams - Butterfly
TTITLE1=Pat Boone - April Love
TTITLE2=Nat King Cole - Unforgettable
TTITLE3=Elvis Presley - Are You Lonesome Tonight?
TTITLE4=Morris Stoloff - Moonglow and Theme From 'Picnic'
TTITLE5=Al Hibbler - Unchained Melody
TTITLE6=Eddie Arnold - Make The World Go Away
TTITLE7=Paul Anka - Diana
TTITLE8=Perry Como - Juke Box Baby
TTITLE9=Eddie Fisher - Dungaree Doll
TTITLE10=Georgia Gibbs - Dance With Me Henry
TTITLE11=Lou Monte - Lazy Mary
TTITLE12=The Ames Brothers - The Naughty Lady Of Shady Lane
TTITLE13=Jaye P. Morgan - That's All I Want From You
TTITLE14=Jim Reeves - Four Walls
EXTD=
EXTT0=
EXTT1=
EXTT2=
EXTT3=
EXTT4=
EXTT5=
EXTT6=
EXTT7=
EXTT8=
EXTT9=
EXTT10=
EXTT11=
EXTT12=
EXTT13=
EXTT14=
PLAYORDER=
